<svg width="139" height="15" viewBox="0 0 139 15" fill="none" xmlns="http://www.w3.org/2000/svg">
<path fill-rule="evenodd" clip-rule="evenodd" d="M2.42654 5.89102V14.6434H0V0L7.32169 7.32169L14.6434 0V14.6434H12.1888V5.89102L7.30767 10.7862L2.42654 5.89102ZM26.201 2.44057H21.3059V7.30767L26.201 7.32169C26.8602 7.32169 27.4213 7.08325 27.8982 6.60636C28.3891 6.12947 28.6275 5.55439 28.6275 4.88113C28.6275 4.2219 28.3891 3.64682 27.8982 3.16993C27.4213 2.67901 26.8602 2.44057 26.201 2.44057ZM28.2629 14.6434L25.4296 9.76226H21.3059V14.6434H18.8933V0H26.201C27.5335 0 28.6837 0.490918 29.6374 1.4447C30.5912 2.39849 31.0681 3.54864 31.0681 4.88113C31.0681 5.89102 30.7736 6.81675 30.1985 7.6443C29.6374 8.45782 28.9221 9.04692 28.0525 9.39758L31.0681 14.6434H28.2629ZM38.0251 14.6434H35.304L42.6117 0L49.9334 14.6434H47.2123C45.6834 11.5997 44.1406 8.54198 42.6117 5.48426C41.0828 8.54198 39.568 11.5997 38.0251 14.6434ZM56.5678 5.89102V14.6434H54.1553V0L61.477 7.32169L68.7987 0V14.6434H66.3301V5.89102L61.463 10.7862L56.5678 5.89102ZM80.3563 0C82.3761 0 84.1013 0.729364 85.518 2.16004C86.9627 3.59072 87.678 5.31594 87.678 7.32169C87.678 9.36953 86.9627 11.0948 85.518 12.4974C84.1013 13.9281 82.3761 14.6434 80.3563 14.6434C78.3225 14.6434 76.6113 13.9281 75.1806 12.4974C73.7499 11.0807 73.0346 9.3555 73.0346 7.32169C73.0346 5.31594 73.7499 3.59072 75.1806 2.16004C76.5973 0.729364 78.3085 0 80.3563 0ZM80.3423 2.44057C79.0098 2.44057 77.8596 2.93148 76.8918 3.88527C75.9521 4.83905 75.4752 5.9892 75.4752 7.32169C75.4752 8.66821 75.9521 9.81837 76.8918 10.7862C77.8596 11.74 79.0098 12.2028 80.3423 12.2028C81.6748 12.2028 82.8249 11.74 83.7787 10.7862C84.7325 9.81837 85.2094 8.66821 85.2094 7.32169C85.2094 5.9892 84.7325 4.83905 83.7787 3.88527C82.8249 2.93148 81.6748 2.44057 80.3423 2.44057ZM99.2216 2.44057H94.3264V7.30767L99.2216 7.32169C99.8949 7.32169 100.456 7.08325 100.933 6.60636C101.424 6.12947 101.648 5.55439 101.648 4.88113C101.648 4.2219 101.424 3.64682 100.933 3.16993C100.456 2.67901 99.8949 2.44057 99.2216 2.44057ZM101.283 14.6434L98.4642 9.76226H94.3264V14.6434H91.9139V0H99.2216C100.568 0 101.704 0.490918 102.658 1.4447C103.626 2.39849 104.089 3.54864 104.089 4.88113C104.089 5.89102 103.808 6.81675 103.233 7.6443C102.672 8.45782 101.957 9.04692 101.073 9.39758L104.089 14.6434H101.283ZM115.646 0C117.666 0 119.391 0.729364 120.808 2.16004C122.253 3.59072 122.982 5.31594 122.982 7.32169C122.982 9.36953 122.253 11.0948 120.808 12.4974C119.391 13.9281 117.666 14.6434 115.646 14.6434C113.627 14.6434 111.901 13.9281 110.485 12.4974C109.054 11.0807 108.339 9.3555 108.339 7.32169C108.339 5.31594 109.054 3.59072 110.485 2.16004C111.887 0.729364 113.613 0 115.646 0ZM115.646 2.44057C114.3 2.44057 113.15 2.93148 112.182 3.88527C111.242 4.83905 110.779 5.9892 110.779 7.32169C110.779 8.66821 111.242 9.81837 112.182 10.7862C113.15 11.74 114.3 12.2028 115.646 12.2028C116.979 12.2028 118.129 11.74 119.083 10.7862C120.037 9.81837 120.513 8.66821 120.513 7.32169C120.513 5.9892 120.037 4.83905 119.083 3.88527C118.129 2.93148 116.979 2.44057 115.646 2.44057ZM127.092 0L131.678 9.18718L136.279 0H139L131.678 14.6434L124.371 0H127.092Z" fill="#2B2A29"/>
</svg>
